<?xml version="1.0" encoding="UTF-8"?>
<svg width="400" height="400" viewBox="0 0 400 400" xmlns="http://www.w3.org/2000/svg">
    <defs>
        <!-- Soft Glow Effect -->
        <filter id="softGlow" x="-50%" y="-50%" width="200%" height="200%">
            <feGaussianBlur stdDeviation="5" result="blur"/>
            <feFlood flood-color="#FF69B4" flood-opacity="0.3"/>
            <feComposite in2="blur" operator="in"/>
            <feMerge>
                <feMergeNode/>
                <feMergeNode in="SourceGraphic"/>
            </feMerge>
        </filter>

        <!-- Sparkle Animation -->
        <filter id="sparkle">
            <feTurbulence type="fractalNoise" baseFrequency="0.1" numOctaves="1" result="noise"/>
            <feColorMatrix type="saturate" values="0" in="noise" result="colorNoise"/>
            <feComposite operator="in" in="SourceGraphic" in2="colorNoise"/>
        </filter>

        <!-- Data Flow Path -->
        <path id="dataPath" d="M120,200 C180,200 220,200 280,200">
            <animate attributeName="d"
                values="M120,200 C180,190 220,210 280,200;
                       M120,190 C180,210 220,190 280,200;
                       M120,200 C180,200 220,200 280,200"
                dur="3s"
                repeatCount="indefinite"/>
        </path>
    </defs>

    <!-- Pastel Background -->
    <circle cx="200" cy="200" r="180" fill="#FFE6F3"/>
    
    <!-- Decorative Border -->
    <circle cx="200" cy="200" r="175" fill="none" stroke="#FF9ECE" stroke-width="3" filter="url(#softGlow)">
        <animate attributeName="stroke-dasharray"
            values="0,1100;1100,0"
            dur="20s"
            repeatCount="indefinite"/>
    </circle>

    <!-- Android Device with Heart -->
    <g transform="translate(240,140) scale(1.6)" filter="url(#softGlow)">
        <path d="M15,5 h30 a5,5 0 0 1 5,5 v50 a5,5 0 0 1 -5,5 h-30 a5,5 0 0 1 -5,-5 v-50 a5,5 0 0 1 5,-5" 
              fill="#FFB7D5" stroke="#FF69B4" stroke-width="2"/>
        <!-- Kawaii Face -->
        <circle cx="25" cy="20" r="2" fill="#FF69B4"/>
        <circle cx="35" cy="20" r="2" fill="#FF69B4"/>
        <path d="M25,30 q5,5 10,0" fill="none" stroke="#FF69B4" stroke-width="1"/>
    </g>

    <!-- USB with Ribbon -->
    <g transform="translate(80,140) scale(1.6)" filter="url(#softGlow)">
        <rect x="10" y="10" width="40" height="25" rx="5" 
              fill="#FFB7D5" stroke="#FF69B4" stroke-width="2"/>
        <path d="M25,5 q15,-10 30,0" fill="none" stroke="#FF69B4" stroke-width="2"/>
    </g>

    <!-- Sparkly Binary Data -->
    <g filter="url(#sparkle)">
        <text font-family="monospace" font-size="16" fill="#FF69B4">
            <textPath href="#dataPath" startOffset="0%">
                <animate attributeName="startOffset"
                    values="0%;100%"
                    dur="3s"
                    repeatCount="indefinite"/>
                ♥1010♥
            </textPath>
        </text>
        <text font-family="monospace" font-size="16" fill="#FF69B4">
            <textPath href="#dataPath" startOffset="50%">
                <animate attributeName="startOffset"
                    values="50%;150%"
                    dur="3s"
                    repeatCount="indefinite"/>
                ♥0101♥
            </textPath>
        </text>
    </g>

    <!-- Decorative Hearts -->
    <g>
        <path d="M50,50 q10,-10 20,0 t20,0" fill="#FFB7D5" transform="rotate(45,60,60)">
            <animate attributeName="fill-opacity"
                values="0.5;1;0.5"
                dur="2s"
                repeatCount="indefinite"/>
        </path>
        <path d="M330,330 q10,-10 20,0 t20,0" fill="#FFB7D5" transform="rotate(-135,340,340)">
            <animate attributeName="fill-opacity"
                values="1;0.5;1"
                dur="2s"
                repeatCount="indefinite"/>
        </path>
    </g>
</svg>